<?xml version="1.0" encoding="UTF-8"?>
<svg id="Layer_2" xmlns="http://www.w3.org/2000/svg" viewBox="0 0 769.52 615.82">
  <defs>
    <style>
      .cls-1 {
        letter-spacing: -.06em;
      }

      .cls-1, .cls-2, .cls-3, .cls-4, .cls-5, .cls-6, .cls-7, .cls-8, .cls-9, .cls-10, .cls-11, .cls-12, .cls-13, .cls-14, .cls-15, .cls-16, .cls-17, .cls-18, .cls-19, .cls-20, .cls-21, .cls-22, .cls-23, .cls-24, .cls-25, .cls-26, .cls-27, .cls-28, .cls-29, .cls-30 {
        font-family: DashHorizon, 'Dash Horizon';
      }

      .cls-31 {
        fill: #b88fc1;
      }

      .cls-31, .cls-32, .cls-33, .cls-34, .cls-35, .cls-36, .cls-37, .cls-38, .cls-39, .cls-40 {
        stroke-miterlimit: 10;
      }

      .cls-31, .cls-32, .cls-34, .cls-35, .cls-36, .cls-37, .cls-39, .cls-40 {
        stroke: #221f1f;
      }

      .cls-2 {
        letter-spacing: -.07em;
      }

      .cls-3 {
        letter-spacing: -.12em;
      }

      .cls-4 {
        letter-spacing: -.08em;
      }

      .cls-5 {
        letter-spacing: -.1em;
      }

      .cls-6 {
        letter-spacing: -.14em;
      }

      .cls-7 {
        letter-spacing: -.07em;
      }

      .cls-8 {
        letter-spacing: -.13em;
      }

      .cls-9 {
        letter-spacing: -.1em;
      }

      .cls-10 {
        letter-spacing: -.14em;
      }

      .cls-11 {
        letter-spacing: -.1em;
      }

      .cls-32 {
        fill: #95298c;
      }

      .cls-12 {
        letter-spacing: -.05em;
      }

      .cls-33 {
        fill: #7e52a0;
        stroke-width: .5px;
      }

      .cls-33, .cls-38 {
        stroke: #fff;
      }

      .cls-41 {
        font-size: 22.39px;
      }

      .cls-41, .cls-42, .cls-43, .cls-44 {
        fill: #fff;
      }

      .cls-13 {
        letter-spacing: -.04em;
      }

      .cls-34, .cls-36 {
        fill: #7a0f7a;
      }

      .cls-34, .cls-39 {
        stroke-width: 2px;
      }

      .cls-45, .cls-46, .cls-43, .cls-44 {
        font-family: Achron, 'Achron Regular';
      }

      .cls-14 {
        letter-spacing: -.22em;
      }

      .cls-15 {
        letter-spacing: -.25em;
      }

      .cls-16 {
        letter-spacing: -.04em;
      }

      .cls-17 {
        letter-spacing: -.07em;
      }

      .cls-18 {
        letter-spacing: -.06em;
      }

      .cls-19 {
        letter-spacing: -.04em;
      }

      .cls-35 {
        fill: #97298b;
        stroke-width: 3px;
      }

      .cls-20 {
        letter-spacing: -.11em;
      }

      .cls-21 {
        letter-spacing: -.07em;
      }

      .cls-22 {
        letter-spacing: -.05em;
      }

      .cls-37, .cls-39 {
        fill: none;
      }

      .cls-23 {
        letter-spacing: -.09em;
      }

      .cls-38 {
        fill: #221f1f;
      }

      .cls-47 {
        font-family: MyriadPro-Regular, 'Myriad Pro';
      }

      .cls-46 {
        fill: #231f20;
        font-size: 55.98px;
      }

      .cls-42 {
        font-size: 23px;
      }

      .cls-24 {
        letter-spacing: -.06em;
      }

      .cls-40 {
        fill: #994c9c;
      }

      .cls-48 {
        letter-spacing: -.12em;
      }

      .cls-25 {
        letter-spacing: -.05em;
      }

      .cls-26 {
        letter-spacing: -.05em;
      }

      .cls-43 {
        font-size: 16px;
      }

      .cls-27 {
        letter-spacing: -.13em;
      }

      .cls-44 {
        font-size: 18px;
      }

      .cls-28 {
        letter-spacing: -.08em;
      }

      .cls-30 {
        letter-spacing: -.09em;
      }
    </style>
  </defs>
  <g id="Home_Page">
    <g>
      <rect class="cls-36" x=".5" y=".5" width="768.52" height="614.82"/>
      <g>
        <circle class="cls-35" cx="384.76" cy="305.96" r="169.83"/>
        <circle class="cls-33" cx="385.41" cy="304.97" r="145.04"/>
        <g>
          <polygon class="cls-31" points="329.04 298.08 346.46 374.79 337.75 378.52 319.09 300.15 329.04 298.08"/>
          <path class="cls-32" d="M302.97,312.81l11.77,59.89c.65-.21-8.52,4.14-10.17-.4-.9-2.46-12.95-56.07-12.95-56.07-.56-.39,4.7-4.55,11.34-3.42Z"/>
          <path class="cls-40" d="M301.67,305.13s12.44,75.88,17.42,76.3c0,0,15.31-1.47,18.66-2.9.19-.08-18.71-78.56-18.66-78.37,0,0-11.2.83-17.42,4.98Z"/>
          <polygon class="cls-31" points="441.41 298.08 423.58 374.82 432.5 378.52 450.53 300.15 441.41 298.08"/>
          <path class="cls-32" d="M467.02,314.25c-.49,1.4,3.35-1.2,9.22,2.9,0,0-9.12,56.87-13.27,57.67l-8.3-2.19,12.35-58.38Z"/>
          <path class="cls-40" d="M468.78,304.3s-14.51,76.71-18.24,77.13c-3.73.41-18.04-2.9-18.04-2.9l18.04-78.37,18.24,4.15Z"/>
          <path class="cls-40" d="M303.95,303.85s-10.16-65.48,45.4-90.77c0,0,55.15-23.64,97.03,17.83,0,0,29.23,34.87,19.07,72.64l-12.02-2.73s9.95-36.73-20.94-63.27c0,0-34.18-33.81-76.09-13.27,0,0-44.78,14.48-40.64,76.28l-11.82,3.3Z"/>
          <text class="cls-46" transform="translate(348.09 313.84)"><tspan x="0" y="0">YJ</tspan></text>
          <text class="cls-41" transform="translate(300.93 404.69)"><tspan class="cls-4" x="0" y="0">B</tspan><tspan class="cls-29" x="11.58" y="0">y </tspan><tspan class="cls-17" x="25.35" y="0">g</tspan><tspan class="cls-26" x="34.93" y="0">am</tspan><tspan class="cls-13" x="58.17" y="0">e</tspan><tspan class="cls-21" x="67.17" y="0">r</tspan><tspan class="cls-29" x="75.3" y="0">s</tspan><tspan class="cls-45" x="84.59" y="0">.</tspan><tspan class="cls-29" x="88.32" y="0"> </tspan><tspan class="cls-14" x="92.29" y="0">F</tspan><tspan class="cls-16" x="99.52" y="0">o</tspan><tspan class="cls-29" x="108.68" y="0">r </tspan><tspan class="cls-11" x="122.34" y="0">G</tspan><tspan class="cls-22" x="133.26" y="0">am</tspan><tspan class="cls-13" x="156.5" y="0">e</tspan><tspan class="cls-21" x="165.51" y="0">r</tspan><tspan class="cls-29" x="173.63" y="0">s</tspan><tspan class="cls-45" x="182.93" y="0">.</tspan></text>
          <text/>
          <rect class="cls-37" x="373.64" y="300.32" width="2.28" height="0"/>
        </g>
      </g>
      <g>
        <circle class="cls-40" cx="107.96" cy="107.02" r="78.98"/>
        <circle class="cls-38" cx="107.96" cy="107.02" r="56.25"/>
        <text class="cls-44" transform="translate(83.06 109.4)"><tspan x="0" y="0">HOME</tspan></text>
      </g>
      <g>
        <circle class="cls-40" cx="107.96" cy="517.79" r="75.51"/>
        <circle class="cls-38" cx="107.96" cy="517.79" r="53.78"/>
        <text class="cls-44" transform="translate(78.79 521.7)"><tspan x="0" y="0">ABOUT</tspan></text>
      </g>
      <g>
        <circle class="cls-40" cx="659.49" cy="512.39" r="75.4"/>
        <circle class="cls-38" cx="659.49" cy="512.39" r="53.71"/>
        <text class="cls-44" transform="translate(618.73 517.79)"><tspan x="0" y="0">CON</tspan><tspan class="cls-48" x="36" y="0">T</tspan><tspan x="45.67" y="0">ACT</tspan></text>
      </g>
      <g>
        <circle class="cls-40" cx="659.53" cy="104" r="75.4"/>
        <circle class="cls-38" cx="659.53" cy="104" r="53.71"/>
        <text class="cls-43" transform="translate(615 106.57)"><tspan x="0" y="0">PORTFOLIO</tspan></text>
      </g>
      <circle class="cls-39" cx="107.96" cy="246.55" r="13.03"/>
      <circle class="cls-39" cx="275.08" cy="104" r="13.03"/>
      <circle class="cls-39" cx="500.41" cy="104" r="13.03"/>
      <circle class="cls-39" cx="275.08" cy="512.39" r="13.03"/>
      <circle class="cls-39" cx="500.41" cy="512.39" r="13.03"/>
      <circle class="cls-39" cx="107.96" cy="349.58" r="13.03"/>
      <circle class="cls-39" cx="659.53" cy="349.58" r="13.03"/>
      <circle class="cls-39" cx="659.53" cy="246.55" r="13.03"/>
      <polyline class="cls-39" points="342.48 141.44 326.93 104 288.11 104"/>
      <line class="cls-39" x1="262.05" y1="104" x2="186.93" y2="104"/>
      <polyline class="cls-39" points="427.04 141.44 456.27 104 487.38 104"/>
      <line class="cls-39" x1="513.43" y1="104" x2="584.12" y2="104"/>
      <polyline class="cls-39" points="107.96 259.58 107.96 282.16 210.43 300.57 107.96 316.82 107.96 336.55"/>
      <line class="cls-39" x1="107.96" y1="233.52" x2="107.96" y2="186"/>
      <line class="cls-39" x1="107.96" y1="362.6" x2="107.96" y2="442.27"/>
      <polyline class="cls-39" points="659.53 259.58 659.53 280.25 559.21 300.21 659.53 314.85 659.53 336.55"/>
      <line class="cls-39" x1="659.53" y1="233.52" x2="659.53" y2="179.4"/>
      <line class="cls-39" x1="659.53" y1="362.6" x2="659.49" y2="436.98"/>
      <polyline class="cls-39" points="427.04 470.48 457.21 512.39 488.55 512.39"/>
      <line class="cls-39" x1="513.43" y1="512.39" x2="584.09" y2="512.39"/>
      <polyline class="cls-34" points="342.48 470.48 319.09 510.9 288.11 510.9"/>
      <line class="cls-34" x1="263.23" y1="510.9" x2="183.15" y2="510.9"/>
      <text class="cls-42" transform="translate(289.86 53.15)"><tspan class="cls-20" x="0" y="0">H</tspan><tspan class="cls-29" x="12.05" y="0">i </tspan><tspan class="cls-28" x="22.66" y="0">t</tspan><tspan class="cls-12" x="31.88" y="0">h</tspan><tspan class="cls-19" x="41.22" y="0">e</tspan><tspan class="cls-1" x="50.46" y="0">r</tspan><tspan class="cls-29" x="59" y="0">e</tspan><tspan class="cls-47" x="69.09" y="0">!</tspan><tspan class="cls-29" x="74.38" y="0" xml:space="preserve"> I </tspan><tspan class="cls-25" x="90.2" y="0">a</tspan><tspan class="cls-29" x="99.29" y="0">m </tspan><tspan class="cls-15" x="119.3" y="0">Y</tspan><tspan class="cls-12" x="125.88" y="0">o</tspan><tspan class="cls-30" x="135.05" y="0">n</tspan><tspan class="cls-29" x="143.63" y="0">g </tspan><tspan class="cls-27" x="159.25" y="0">J</tspan><tspan class="cls-28" x="169.69" y="0">i</tspan><tspan class="cls-29" x="174.38" y="0">n</tspan><tspan class="cls-47" x="185.03" y="0">.</tspan><tspan class="cls-29" x="-29.65" y="27.6"> </tspan><tspan class="cls-23" x="-25.58" y="27.6">M</tspan><tspan class="cls-29" x="-10.37" y="27.6">y </tspan><tspan class="cls-24" x="3.77" y="27.6">b</tspan><tspan class="cls-10" x="12.99" y="27.6">i</tspan><tspan class="cls-3" x="16.3" y="27.6">g</tspan><tspan class="cls-7" x="25.09" y="27.6">g</tspan><tspan class="cls-18" x="35.03" y="27.6">e</tspan><tspan class="cls-30" x="43.74" y="27.6">s</tspan><tspan class="cls-29" x="51.22" y="27.6">t </tspan><tspan class="cls-24" x="66.35" y="27.6">pa</tspan><tspan class="cls-5" x="85.28" y="27.6">s</tspan><tspan class="cls-2" x="92.53" y="27.6">s</tspan><tspan class="cls-9" x="100.46" y="27.6">i</tspan><tspan class="cls-25" x="104.74" y="27.6">o</tspan><tspan class="cls-29" x="113.92" y="27.6">n </tspan><tspan class="cls-20" x="128.64" y="27.6">i</tspan><tspan class="cls-29" x="132.64" y="27.6">s </tspan><tspan class="cls-6" x="146.25" y="27.6">G</tspan><tspan class="cls-29" x="156.56" y="27.6">A</tspan><tspan class="cls-5" x="167.48" y="27.6">M</tspan><tspan class="cls-8" x="182.46" y="27.6">I</tspan><tspan class="cls-23" x="187.15" y="27.6">N</tspan><tspan class="cls-29" x="200.62" y="27.6">G</tspan><tspan class="cls-47" x="214.15" y="27.6">!</tspan></text>
    </g>
  </g>
</svg>